<svg width="160" height="160" viewBox="0 0 160 160" fill="none" xmlns="http://www.w3.org/2000/svg">
<rect width="160" height="160" rx="40" fill="#A8D99C"/>
<path d="M72.2614 50.9316L66.7303 51.1708L54.689 37.8067C54.6067 37.7006 54.515 37.5989 54.4141 37.5029C54.1215 37.2246 53.7802 37.0212 53.4162 36.8922L85.3205 113.979C93.4373 127.234 99.6755 125.757 115.3 122.043C123.106 120.187 133.533 117.709 148.31 116.575C148.721 116.561 149.135 116.461 149.522 116.264C150.882 115.574 151.397 113.965 150.671 112.671L150.661 112.676L115.957 50.7731C115.516 49.7771 114.457 49.0992 113.256 49.1511L113.257 49.159L112.694 49.1833C112.635 49.8597 112.552 50.5336 112.447 51.2024C112.148 53.11 111.673 54.9948 111.077 56.8375C108.402 65.1097 102.61 74.4122 96.2413 80.5339C95.2068 81.5282 93.8595 82.1416 92.3749 82.1416C90.8904 82.1416 89.543 81.5282 88.5085 80.5339C82.1399 74.4122 76.3479 65.1096 73.6727 56.8375C73.0767 54.9948 72.6018 53.11 72.3027 51.2024C72.2886 51.1123 72.2748 51.0221 72.2615 50.9317L72.2614 50.9316ZM50.6243 37.3633C50.5701 37.4075 50.5173 37.454 50.466 37.5028L50.4662 37.503L39.6864 47.758L72.2154 125.688L72.2461 125.64L72.2406 125.633L81.2469 111.353L50.6243 37.3633ZM36.705 50.5944L36.6408 50.6554L33.4426 36.9643C33.3374 36.2054 32.8899 35.4954 32.1543 35.0581C30.8469 34.2808 29.1245 34.6588 28.3074 35.9025L30.6747 37.3101L28.3083 35.9096L17.5125 52.3418C17.1189 52.8713 16.9269 53.5381 17.0256 54.2313L17.0334 54.2303L27.3314 126.501C27.3655 127.056 27.5821 127.605 27.989 128.062C28.9861 129.18 30.7478 129.318 31.9237 128.37L31.9198 128.365L47.1545 116.077L36.705 50.5944ZM49.9372 115.994L68.2296 126.435C68.2896 126.476 68.3517 126.514 68.4159 126.551C68.8354 126.79 69.2943 126.913 69.7509 126.928L40.499 56.8494L49.9372 115.994Z" fill="#424242"/>
<path fill-rule="evenodd" clip-rule="evenodd" d="M90.4922 78.6659C91.0726 79.2181 91.7254 79.4745 92.3744 79.4859C93.0235 79.4745 93.6762 79.2181 94.2566 78.6659C99.492 73.581 105.582 64.796 108.409 56.0566C108.978 54.2958 109.415 52.537 109.686 50.8106C110.178 47.6743 110.121 44.6452 109.315 41.9068C104.638 26.0311 80.1112 26.0311 75.4343 41.9068C74.6276 44.6451 74.5713 47.6743 75.0632 50.8106C75.334 52.537 75.771 54.2958 76.3403 56.0566C79.1668 64.796 85.2568 73.5809 90.4922 78.6659ZM85.8948 52.9755C84.2078 51.3707 83.1643 49.1538 83.1643 46.7055C83.1643 44.2571 84.2078 42.0403 85.8948 40.4355C89.505 37.001 95.2438 37.001 98.8541 40.4355C100.541 42.0403 101.585 44.2571 101.585 46.7055C101.585 49.1538 100.541 51.3707 98.8541 52.9755C95.2438 56.41 89.5051 56.41 85.8948 52.9755Z" fill="#424242"/>
</svg>
