<svg width="272" height="62" viewBox="0 0 272 62" fill="none" xmlns="http://www.w3.org/2000/svg">
<path d="M18.16 43.36L0.8 12.28C1.22 12.0467 1.85 11.8367 2.69 11.65C3.53 11.4633 4.3 11.37 5 11.37C6.54 11.37 7.82333 11.6967 8.85 12.35C9.92333 12.9567 10.8333 13.9367 11.58 15.29L22.22 35.17L20.4 38.81L21.1 39.16L33.21 15.29C34.5167 12.6767 36.71 11.37 39.79 11.37C40.49 11.37 41.26 11.4633 42.1 11.65C42.94 11.8367 43.57 12.0467 43.99 12.28L26.63 43.36V55.19C26.63 57.2433 25.9067 58.83 24.46 59.95C23.0133 61.07 20.9133 61.63 18.16 61.63V43.36ZM112.799 61.63C108.926 61.63 105.449 60.86 102.369 59.32C99.2895 57.7333 96.8628 55.5633 95.0895 52.81C93.3628 50.0567 92.4995 46.9533 92.4995 43.5V17.81C92.4995 15.71 93.1995 14.1233 94.5995 13.05C96.0461 11.93 98.1461 11.37 100.899 11.37V43.5C100.899 46.7667 101.973 49.38 104.119 51.34C106.313 53.2533 109.206 54.21 112.799 54.21C116.346 54.21 119.193 53.23 121.339 51.27C123.533 49.31 124.629 46.72 124.629 43.5V17.81C124.629 15.71 125.329 14.1233 126.729 13.05C128.176 11.93 130.276 11.37 133.029 11.37V43.5C133.029 46.9533 132.143 50.0567 130.369 52.81C128.643 55.5633 126.239 57.7333 123.159 59.32C120.079 60.86 116.626 61.63 112.799 61.63ZM248.084 61.765C243.097 61.765 238.762 61.1133 235.079 59.81C231.396 58.5067 228.562 56.7217 226.579 54.455C224.652 52.1883 223.689 49.5817 223.689 46.635C223.689 42.045 226.579 39.75 232.359 39.75C232.472 44.2267 233.889 47.6267 236.609 49.95C239.386 52.2733 243.267 53.435 248.254 53.435C252.617 53.435 255.989 52.6983 258.369 51.225C260.749 49.7517 261.939 47.6267 261.939 44.85C261.939 43.0933 261.486 41.6767 260.579 40.6C259.672 39.4667 258.142 38.475 255.989 37.625C253.836 36.7183 250.719 35.8117 246.639 34.905C241.199 33.715 236.892 32.3267 233.719 30.74C230.602 29.1533 228.336 27.255 226.919 25.045C225.502 22.835 224.794 20.0867 224.794 16.8C224.794 13.6267 225.729 10.8217 227.599 8.385C229.469 5.94833 232.104 4.07833 235.504 2.77499C238.904 1.415 242.842 0.734996 247.319 0.734996C251.569 0.734996 255.394 1.33 258.794 2.52C262.194 3.65333 264.857 5.26833 266.784 7.365C268.711 9.46166 269.674 11.87 269.674 14.59C269.674 18.5 266.926 20.54 261.429 20.71C260.976 16.63 259.616 13.655 257.349 11.785C255.139 9.915 251.796 8.98 247.319 8.98C243.352 8.98 240.292 9.66 238.139 11.02C235.986 12.38 234.909 14.3067 234.909 16.8C234.909 18.5 235.306 19.9167 236.099 21.05C236.949 22.1267 238.337 23.09 240.264 23.94C242.191 24.7333 244.967 25.5267 248.594 26.32C254.374 27.6233 258.964 29.0967 262.364 30.74C265.764 32.3267 268.201 34.2533 269.674 36.52C271.204 38.73 271.969 41.5067 271.969 44.85C271.969 48.3067 270.977 51.31 268.994 53.86C267.067 56.41 264.291 58.365 260.664 59.725C257.094 61.085 252.901 61.765 248.084 61.765Z" fill="white"/>
<path d="M64.9949 61.63C61.1683 61.63 57.6683 60.86 54.4949 59.32C51.3683 57.78 48.8949 55.7033 47.0749 53.09C45.2549 50.4767 44.3449 47.6067 44.3449 44.48V28.45C44.3449 25.3233 45.2316 22.4533 47.0049 19.84C48.8249 17.2267 51.2983 15.1733 54.4249 13.68C57.5983 12.14 61.1216 11.37 64.9949 11.37C68.8683 11.37 72.3683 12.14 75.4949 13.68C78.6683 15.1733 81.1416 17.2267 82.9149 19.84C84.7349 22.4533 85.6449 25.3233 85.6449 28.45V44.48C85.6449 47.6067 84.7349 50.4767 82.9149 53.09C81.0949 55.7033 78.5983 57.78 75.4249 59.32C72.2983 60.86 68.8216 61.63 64.9949 61.63ZM64.9949 54.28C68.7283 54.28 71.6916 53.37 73.8849 51.55C76.1249 49.73 77.2449 47.3267 77.2449 44.34V28.59C77.2449 25.6033 76.1249 23.2233 73.8849 21.45C71.6916 19.63 68.7283 18.72 64.9949 18.72C61.2616 18.72 58.2749 19.63 56.0349 21.45C53.8416 23.2233 52.7449 25.6033 52.7449 28.59V44.34C52.7449 47.3267 53.8416 49.73 56.0349 51.55C58.2749 53.37 61.2616 54.28 64.9949 54.28Z" fill="#ECAC7A"/>
<path d="M166.776 61.765C161.79 61.765 157.341 60.83 153.431 58.96C149.578 57.0333 146.575 54.3983 144.421 51.055C142.268 47.655 141.191 43.8017 141.191 39.495V22.75C141.191 18.4433 142.24 14.6467 144.336 11.36C146.49 8.01666 149.465 5.41 153.261 3.54C157.115 1.67 161.478 0.734996 166.351 0.734996C171.225 0.734996 175.56 1.5 179.356 3.03C183.21 4.50333 186.185 6.57166 188.281 9.235C190.435 11.8983 191.511 14.93 191.511 18.33C191.511 20.3133 190.86 21.8717 189.556 23.005C188.253 24.0817 186.496 24.62 184.286 24.62C183.21 24.62 182.19 24.5067 181.226 24.28C181.396 23.43 181.481 22.1833 181.481 20.54C181.481 17.31 180.065 14.675 177.231 12.635C174.455 10.595 170.828 9.575 166.351 9.575C161.931 9.575 158.333 10.7933 155.556 13.23C152.78 15.6667 151.391 18.84 151.391 22.75V39.495C151.391 42.1017 152.043 44.425 153.346 46.465C154.65 48.505 156.463 50.0917 158.786 51.225C161.11 52.3583 163.773 52.925 166.776 52.925C171.14 52.925 174.71 51.8767 177.486 49.78C180.32 47.6267 181.736 44.9067 181.736 41.62V38.22H173.236C171.253 38.22 169.61 37.4833 168.306 36.01C167.06 34.48 166.436 32.4967 166.436 30.06H187.091C188.565 30.06 189.726 30.485 190.576 31.335C191.483 32.185 191.936 33.3183 191.936 34.735V41.79C191.936 45.6433 190.86 49.1 188.706 52.16C186.61 55.1633 183.635 57.515 179.781 59.215C175.985 60.915 171.65 61.765 166.776 61.765ZM202.853 8.555C202.853 6.06166 203.731 4.135 205.488 2.77499C207.301 1.415 209.823 0.734996 213.053 0.734996V53.86C213.053 56.3533 212.175 58.3083 210.418 59.725C208.661 61.085 206.14 61.765 202.853 61.765V8.555Z" fill="#A8D99C"/>
</svg>
