<?xml version="1.0" encoding="UTF-8"?>
<svg xmlns="http://www.w3.org/2000/svg" viewBox="0 0 2048 2048">
  <g id="Layer_x0020_1">
    <g id="_309137896">
      <path
        d="M889.444 679.767l-63.4016 2.88189 -138.027 -161.03c-0.94252,-1.27913 -1.9937,-2.50394 -3.15118,-3.66142 -3.35315,-3.35315 -7.26615,-5.80394 -11.4378,-7.35827l365.711 928.854c93.0414,159.715 164.548,141.918 343.65,97.1646 89.4816,-22.3595 209.004,-52.2248 378.387,-65.8796 4.70788,-0.168898 9.45001,-1.38307 13.8851,-3.74882 15.5929,-8.31615 21.4925,-27.7016 13.1764,-43.2945l-0.109843 0.0590552 -397.812 -745.897c-5.05512,-12.0012 -17.1862,-20.1697 -30.9544,-19.5449l0.00472441 0.0956694 -6.45 0.292914c-0.672048,8.14961 -1.62756,16.2697 -2.82992,24.3295 -3.42874,22.9855 -8.87245,45.6957 -15.7039,67.8993 -30.665,99.6757 -97.0583,211.766 -170.06,285.529 -11.8583,11.9811 -27.3024,19.3713 -44.3197,19.3713 -17.0173,0 -32.4614,-7.39016 -44.3197,-19.3713 -73.0016,-73.7634 -139.395,-185.854 -170.06,-285.529 -6.8315,-22.2036 -12.2752,-44.9138 -15.7039,-67.8993 -0.161811,-1.08662 -0.320079,-2.17323 -0.472441,-3.26221zm-248.021 -163.491c-0.62126,0.532678 -1.22599,1.09252 -1.81417,1.68071l0.00236221 0.00236221 -123.567 123.567 372.873 939.01 0.351969 -0.571654 -0.0637796 -0.0897638 103.237 -172.061 -351.019 -891.538zm-159.554 159.427l-0.735827 0.735827 -36.6603 -164.971c-1.20591,-9.1441 -6.33544,-17.6988 -14.7673,-22.9689 -14.9858,-9.36615 -34.7303,-4.81063 -44.0965,10.1752l27.1358 16.9606 -27.1252 -16.8756 -123.749 197.999c-4.51181,6.38032 -6.71339,14.4154 -5.58189,22.7681l0.0897638 -0.011811 118.043 870.825c0.390945,6.68504 2.87362,13.3039 7.5378,18.8043 11.4295,13.4788 31.624,15.1417 45.1028,3.71221l-0.0448819 -0.0531496 174.632 -148.07 -119.78 -789.03zm151.678 788.029l209.682 125.81c0.687402,0.490158 1.39961,0.956694 2.13543,1.39843 4.80827,2.88425 10.0689,4.35709 15.3024,4.54252l-335.308 -844.41 108.188 712.659z"
        fill="#424242"
      />
      <path
        d="M1098.42 1013.95c6.65315,6.65315 14.1354,9.74292 21.5752,9.88111 7.43977,-0.138189 14.9221,-3.22796 21.5752,-9.88111 60.0119,-61.2709 129.821,-167.125 162.22,-272.43 6.52678,-21.2162 11.5358,-42.4087 14.6398,-63.2115 5.63859,-37.7906 4.99252,-74.2902 -4.25433,-107.286 -53.6103,-191.294 -334.751,-191.294 -388.361,0 -9.24686,32.9953 -9.89292,69.4949 -4.25433,107.286 3.10394,20.8028 8.113,41.9953 14.6398,63.2115 32.3988,105.305 102.208,211.159 162.22,272.43zm-52.6996 -309.555c-19.337,-19.337 -31.2981,-46.05 -31.2981,-75.5505 0,-29.5016 11.961,-56.2134 31.2981,-75.5505 41.3835,-41.3835 107.166,-41.3835 148.55,0 19.337,19.337 31.2981,46.0489 31.2981,75.5505 0,29.5004 -11.961,56.2134 -31.2981,75.5505 -41.3835,41.3835 -107.166,41.3835 -148.55,0z"
        fill="#424242"
      />
    </g>
  </g>
  <rect fill="none" width="2048" height="2048" />
</svg>
